<svg xmlns="http://www.w3.org/2000/svg" version="1.1" xmlns:xlink="http://www.w3.org/1999/xlink" width="1000" height="1000"><g clip-path="url(#SvgjsClipPath1359)"><rect width="1000" height="1000" fill="#005a96"></rect><g transform="matrix(7.092198581560283,0,0,7.092198581560283,5.684341886080802e-14,251.77304964539007)"><svg xmlns="http://www.w3.org/2000/svg" version="1.1" xmlns:xlink="http://www.w3.org/1999/xlink" width="141" height="70"><svg xmlns="http://www.w3.org/2000/svg" version="1.2" baseProfile="tiny-ps" viewBox="0 0 141 70" width="141" height="70">
	<g id="Gruppe 1" transform="translate(0, -5)">
		<path id="Pfad 9" d="M15.57 50.23C13.15 43.18 15.07 36.03 18.94 32.39C23.77 27.84 31.98 26.12 40.76 26.48L40.88 26.48C43.72 26.71 46.44 27.06 48.89 27.68L49.01 27.68C53.81 29.29 57.89 32.28 59.57 36.73C57.8 36.94 56.05 37.17 54.46 37.57L54.35 37.57C51.97 37.84 49.72 38.24 47.5 38.66C46.08 36.51 44.42 34.61 41.34 34.19L41.23 34.19C40.84 33.95 40.24 33.94 39.6 33.95L39.37 33.95C35.35 33.69 31.42 34.96 29.74 38.29C28.11 41.51 28.26 47.42 30.08 50.47C31.23 52.38 33.41 53.58 36 53.85L36.12 53.85C36.9 54.01 38.2 54.26 39.02 53.97L39.14 53.97C43.13 53.94 45.52 52.23 46.92 49.51L46.92 49.39C47.42 48.95 47.53 48.1 47.84 47.46C51.36 48.11 54.65 48.99 58.18 49.63L58.29 49.63C58.85 49.85 59.5 49.98 60.15 50.11C57.94 56.82 52.37 60.04 44.83 61.2L44.71 61.2C43.86 61.24 42.98 61.26 42.27 61.45L42.04 61.45C29.52 62.07 19.33 59.23 15.57 50.35L15.57 50.23Z" fill="#ed1c24"></path>
		<path id="Pfad 10" d="M70.78 28.62L70.78 28.26L82.73 28.26C84.29 34.36 85.45 40.87 87.36 46.6C87.85 46.58 87.8 46.01 87.94 45.64L87.94 45.52C89.16 42.66 90.14 39.56 91.19 36.53L91.19 36.41C91.92 34.81 92.47 33.02 93.05 31.26L93.05 31.14C93.48 30.42 93.72 29.52 93.97 28.62L93.97 28.5C94.1 28.48 94.15 28.37 94.21 28.26L106.26 28.26C106.77 29.42 107.08 30.77 107.66 31.86L107.66 31.98C108.07 33.31 108.47 34.65 109.05 35.81L109.05 35.93C110.35 39.5 111.4 43.33 112.99 46.6C113.89 45.41 114.01 43.76 114.38 42.28C115.53 37.65 116.63 32.84 117.74 28.26L129.69 28.26C126.54 39.11 123.52 50.1 120.41 60.98L107.89 60.98C106.14 56.35 104.63 51.48 102.79 46.96L102.79 46.84C102.01 44.61 101.35 42.25 100.35 40.25C99.66 40.26 99.73 41.04 99.54 41.56L99.54 41.68C97.72 46.32 96.08 51.13 94.44 55.94L94.44 56.06C93.65 57.53 93.28 59.43 92.58 60.98L80.06 60.98C79.1 57.86 78.34 54.53 77.28 51.51L77.28 51.39C75.32 44.31 73.38 37.21 71.25 30.3L71.25 30.18C71.13 29.66 71.07 29.08 70.78 28.74L70.78 28.62Z" fill="#ed1c24"></path>
	</g>
</svg></svg></g></g><defs><clipPath id="SvgjsClipPath1359"><rect width="1000" height="1000" x="0" y="0" rx="500" ry="500"></rect></clipPath></defs></svg>